<svg width="96" height="32" viewBox="0 0 96 32" fill="none" xmlns="http://www.w3.org/2000/svg" role="img" aria-label="Starry eyes accessory">
  <path d="M34 7L37 14L44 16L37 18L34 25L31 18L24 16L31 14L34 7Z" fill="#FDE68A" stroke="#D97706" stroke-width="2" stroke-linejoin="round"/>
  <path d="M62 7L65 14L72 16L65 18L62 25L59 18L52 16L59 14L62 7Z" fill="#F0ABFC" stroke="#9333EA" stroke-width="2" stroke-linejoin="round"/>
  <path d="M18 6L21 10L25 12L21 14L18 18L15 14L11 12L15 10L18 6Z" fill="#67E8F9"/>
  <path d="M78 17L81 21L85 23L81 25L78 29L75 25L71 23L75 21L78 17Z" fill="#A7F3D0"/>
</svg>
